# Blender v2.79 (sub 0) OBJ File: ''
# www.blender.org
mtllib table.mtl
o Cube_Cube.001
v -1.657124 0.675282 1.074451
v -1.657124 1.000000 1.074451
v -1.657124 0.675282 0.741118
v -1.657124 1.000000 0.741118
v -1.323791 0.675282 1.074451
v -1.323791 1.000000 1.074451
v -1.323791 1.000000 0.741118
v -1.323791 0.675282 0.741118
v -1.657124 -1.098959 0.741118
v -1.657124 -1.098959 1.074451
v -1.323791 -1.098959 0.741118
v -1.323791 -1.098959 1.074451
v -1.854123 0.675282 0.872450
v -1.854123 0.675282 1.271450
v -1.854123 1.000000 1.271450
v -1.455124 1.000000 1.271450
v -1.854123 1.000000 0.872450
v -1.455124 0.675282 1.271450
v -1.628005 -1.156144 0.770237
v -1.628005 -1.156144 1.045331
v -1.352911 -1.156144 0.770237
v -1.352911 -1.156144 1.045331
v 1.657124 0.675282 1.074451
v 1.657124 1.000000 1.074451
v 1.657124 0.675282 0.741118
v 1.657124 1.000000 0.741118
v 1.323791 0.675282 1.074451
v 1.323791 1.000000 1.074451
v 1.323791 1.000000 0.741118
v 1.323791 0.675282 0.741118
v 1.657124 -1.098959 0.741118
v 1.657124 -1.098959 1.074451
v 1.323791 -1.098959 0.741118
v 1.323791 -1.098959 1.074451
v 1.854123 0.675282 0.872450
v 1.854123 0.675282 1.271450
v 1.854123 1.000000 1.271450
v 1.455124 1.000000 1.271450
v 1.854123 1.000000 0.872450
v 1.455124 0.675282 1.271450
v 0.000000 0.675282 1.074451
v 0.000000 1.000000 1.074451
v 0.000000 1.000000 0.741118
v 0.000000 0.675282 0.741118
v 0.000000 0.675282 1.271450
v 0.000000 1.000000 1.271450
v 1.628005 -1.156144 0.770237
v 1.628005 -1.156144 1.045331
v 1.352911 -1.156144 0.770237
v 1.352911 -1.156144 1.045331
v -1.657124 0.675282 -1.074451
v -1.657124 1.000000 -1.074451
v -1.657124 0.675282 -0.741118
v -1.657124 1.000000 -0.741118
v -1.323791 0.675282 -1.074451
v -1.323791 1.000000 -1.074451
v -1.323791 1.000000 -0.741118
v -1.323791 0.675282 -0.741118
v -1.657124 -1.098959 -0.741118
v -1.657124 -1.098959 -1.074451
v -1.323791 -1.098959 -0.741118
v -1.323791 -1.098959 -1.074451
v -1.854123 0.675282 -0.872450
v -1.854123 0.675282 -1.271450
v -1.854123 1.000000 -1.271450
v -1.455124 1.000000 -1.271450
v -1.854123 1.000000 -0.872450
v -1.455124 0.675282 -1.271450
v -1.657124 0.675282 0.000000
v -1.657124 1.000000 0.000000
v -1.323791 0.675282 0.000000
v -1.323791 1.000000 0.000000
v -1.854123 0.675282 0.000000
v -1.854123 1.000000 0.000000
v -1.628005 -1.156144 -0.770237
v -1.628005 -1.156144 -1.045331
v -1.352911 -1.156144 -0.770237
v -1.352911 -1.156144 -1.045331
v 1.657124 0.675282 -1.074451
v 1.657124 1.000000 -1.074451
v 1.657124 0.675282 -0.741118
v 1.657124 1.000000 -0.741118
v 1.323791 0.675282 -1.074451
v 1.323791 1.000000 -1.074451
v 1.323791 1.000000 -0.741118
v 1.323791 0.675282 -0.741118
v 1.657124 -1.098959 -0.741118
v 1.657124 -1.098959 -1.074451
v 1.323791 -1.098959 -0.741118
v 1.323791 -1.098959 -1.074451
v 1.854123 0.675282 -0.872450
v 1.854123 0.675282 -1.271450
v 1.854123 1.000000 -1.271450
v 1.455124 1.000000 -1.271450
v 1.854123 1.000000 -0.872450
v 1.455124 0.675282 -1.271450
v 0.000000 0.675282 -1.074451
v 0.000000 1.000000 -1.074451
v 0.000000 1.000000 -0.741118
v 0.000000 0.675282 -0.741118
v 0.000000 0.675282 -1.271450
v 0.000000 1.000000 -1.271450
v 1.657124 0.675282 0.000000
v 1.657124 1.000000 0.000000
v 1.323791 0.675282 0.000000
v 1.323791 1.000000 0.000000
v 1.854123 0.675282 0.000000
v 1.854123 1.000000 0.000000
v 0.000000 1.000000 0.000000
v 0.000000 0.675282 0.000000
v 1.628005 -1.156144 -0.770237
v 1.628005 -1.156144 -1.045331
v 1.352911 -1.156144 -0.770237
v 1.352911 -1.156144 -1.045331
vt 0.453013 0.635861
vt 0.508126 0.635861
vt 0.486411 0.671536
vt 0.420441 0.671536
vt 0.210221 0.635861
vt 0.332756 0.635861
vt 0.354471 0.671536
vt 0.210221 0.671536
vt 0.453013 0.335768
vt 0.453013 0.575497
vt 0.420441 0.599280
vt 0.420441 0.335768
vt 0.508126 0.575497
vt 0.630661 0.575497
vt 0.630662 0.635861
vt 0.210221 0.575497
vt 0.332756 0.575497
vt 0.630661 0.335768
vt 0.508126 0.335768
vt 0.496018 0.682584
vt 0.440905 0.682584
vt 0.445719 0.671536
vt 0.491203 0.671536
vt 0.220452 1.000000
vt 0.165339 1.000000
vt 0.165339 0.682584
vt 0.220452 0.682584
vt 0.771583 1.000000
vt 0.716470 1.000000
vt 0.716470 0.682584
vt 0.771583 0.682584
vt 0.496018 1.000000
vt 0.440905 1.000000
vt 0.826696 1.000000
vt 0.771583 1.000000
vt 0.771583 0.682584
vt 0.826696 0.682584
vt 0.840882 0.599280
vt 0.893921 0.599280
vt 0.893921 0.671536
vt 0.840882 0.671536
vt 1.000000 0.921000
vt 0.946961 0.921000
vt 0.946961 0.848745
vt 1.000000 0.848745
vt 0.840882 0.335768
vt 0.893921 0.335768
vt 0.387869 0.635861
vt 0.420441 0.671536
vt 0.387869 0.575496
vt 0.420441 0.599280
vt 0.387869 0.335768
vt 0.420441 0.335768
vt 0.332756 0.335768
vt 0.210221 0.335768
vt 0.630662 0.671536
vt 0.946961 0.690750
vt 1.000000 0.690750
vt 0.927293 0.771171
vt 0.881809 0.771171
vt 0.881809 0.721353
vt 0.927293 0.721353
vt 0.721285 0.671536
vt 0.766768 0.671536
vt 0.776398 0.671536
vt 0.821881 0.671536
vt 0.170154 0.671536
vt 0.215638 0.671536
vt 0.453013 0.035675
vt 0.420441 0.000000
vt 0.486411 0.000000
vt 0.508126 0.035675
vt 0.210220 0.035675
vt 0.210220 0.000000
vt 0.354471 0.000000
vt 0.332756 0.035675
vt 0.420441 0.072256
vt 0.453013 0.096039
vt 0.508126 0.096039
vt 0.630661 0.096039
vt 0.630661 0.035675
vt 0.332756 0.096039
vt 0.210220 0.096039
vt 0.330678 0.682584
vt 0.335493 0.671536
vt 0.380977 0.671536
vt 0.385792 0.682584
vt 0.330678 0.671536
vt 0.330678 0.988952
vt 0.275565 0.988952
vt 0.275565 0.671536
vt 0.661357 1.000000
vt 0.661357 0.682584
vt 0.716470 0.682584
vt 0.716470 1.000000
vt 0.330679 1.000000
vt 0.385792 1.000000
vt 0.826696 1.000000
vt 0.826696 0.682584
vt 0.881809 0.682584
vt 0.881809 1.000000
vt 0.840882 0.072256
vt 0.840882 0.000000
vt 0.893921 0.000000
vt 0.893921 0.072256
vt 1.000000 0.000000
vt 1.000000 0.072256
vt 0.946961 0.072256
vt 0.946961 0.000000
vt 0.420441 0.000000
vt 0.387869 0.035675
vt 0.420441 0.072256
vt 0.387869 0.096039
vt 0.630661 0.000000
vt 1.000000 0.230250
vt 0.946961 0.230250
vt 0.881809 0.721353
vt 0.881809 0.671536
vt 0.927293 0.671536
vt 0.927293 0.721353
vt 0.666171 0.671536
vt 0.711655 0.671536
vt 0.831511 0.671536
vt 0.876994 0.671536
vt 0.325864 1.000000
vt 0.280380 1.000000
vt 0.808310 0.635861
vt 0.840882 0.671536
vt 0.774912 0.671536
vt 0.753197 0.635861
vt 0.065970 0.671536
vt 0.087685 0.635861
vt 0.808310 0.335768
vt 0.840882 0.335768
vt 0.840882 0.599280
vt 0.808310 0.575496
vt 0.753197 0.575497
vt 0.087685 0.575497
vt 0.753197 0.335768
vt 0.110226 0.988952
vt 0.105412 1.000000
vt 0.059928 1.000000
vt 0.055113 0.988952
vt 0.220452 1.000000
vt 0.220452 0.682584
vt 0.275565 0.682584
vt 0.275565 1.000000
vt 0.606244 0.671536
vt 0.606244 0.988952
vt 0.551131 0.988952
vt 0.551131 0.671536
vt 0.110226 0.671536
vt 0.055113 0.671536
vt 0.385792 1.000000
vt 0.385792 0.682584
vt 0.440905 0.682584
vt 0.440905 1.000000
vt 0.946961 0.599280
vt 0.946961 0.671536
vt 0.893921 0.671536
vt 0.893921 0.599280
vt 1.000000 0.460500
vt 1.000000 0.532756
vt 0.946961 0.532756
vt 0.946961 0.460500
vt 0.946961 0.335768
vt 0.893921 0.335768
vt 0.000000 0.671536
vt 0.032572 0.635861
vt 0.000000 0.599280
vt 0.032572 0.575497
vt 0.000000 0.335768
vt 0.032572 0.335768
vt 0.087685 0.335768
vt 0.881809 0.820988
vt 0.881809 0.771171
vt 0.927293 0.771171
vt 0.927293 0.820988
vt 0.601429 1.000000
vt 0.555945 1.000000
vt 0.390606 0.671536
vt 0.436090 0.671536
vt 0.225267 0.671536
vt 0.270751 0.671536
vt 0.808310 0.035675
vt 0.753197 0.035675
vt 0.774912 0.000000
vt 0.840882 0.000000
vt 0.087685 0.035675
vt 0.065970 0.000000
vt 0.808310 0.096039
vt 0.840882 0.072256
vt 0.753197 0.096039
vt 0.087685 0.096039
vt 0.165339 0.682584
vt 0.110226 0.682584
vt 0.115041 0.671536
vt 0.160525 0.671536
vt 0.551131 1.000000
vt 0.496018 1.000000
vt 0.496018 0.682584
vt 0.551131 0.682584
vt 0.606244 0.671536
vt 0.661357 0.671536
vt 0.661357 0.988952
vt 0.606244 0.988952
vt 0.165339 1.000000
vt 0.110226 1.000000
vt 0.000000 0.671536
vt 0.055113 0.671536
vt 0.055113 0.988952
vt 0.000000 0.988952
vt 0.946961 0.072256
vt 0.893921 0.072256
vt 0.893921 0.000000
vt 0.946961 0.000000
vt 1.000000 0.460500
vt 0.946961 0.460500
vt 0.946961 0.388244
vt 1.000000 0.388244
vt 0.032572 0.035675
vt 0.000000 0.000000
vt 0.032572 0.096039
vt 0.000000 0.072256
vt 0.927293 0.870806
vt 0.881809 0.870806
vt 0.881809 0.820988
vt 0.927293 0.820988
vt 0.656542 1.000000
vt 0.611058 1.000000
vt 0.050298 1.000000
vt 0.004815 1.000000
vt 0.500832 0.671536
vt 0.546316 0.671536
vn 0.0000 1.0000 0.0000
vn 0.0000 -1.0000 0.0000
vn 0.8911 -0.4538 0.0000
vn -1.0000 0.0000 0.0000
vn 0.0000 0.0000 -1.0000
vn 1.0000 0.0000 0.0000
vn 0.0000 0.0000 1.0000
vn 0.0000 -0.4538 -0.8911
vn 0.0000 -0.4538 0.8911
vn -0.8911 -0.4538 0.0000
usemtl Material.001
s off
f 2/1/1 4/2/1 17/3/1 15/4/1
f 69/5/2 3/6/2 13/7/2 73/8/2
f 42/9/1 6/10/1 16/11/1 46/12/1
f 7/13/1 4/2/1 2/1/1 6/10/1
f 72/14/1 70/15/1 4/2/1 7/13/1
f 69/5/2 71/16/2 8/17/2 3/6/2
f 109/18/1 72/14/1 7/13/1 43/19/1
f 43/19/1 7/13/1 6/10/1 42/9/1
f 6/10/1 2/1/1 15/4/1 16/11/1
f 11/20/3 12/21/3 22/22/3 21/23/3
f 1/24/4 3/25/4 9/26/4 10/27/4
f 3/28/5 8/29/5 11/30/5 9/31/5
f 8/32/6 5/33/6 12/21/6 11/20/6
f 5/34/7 1/35/7 10/36/7 12/37/7
f 18/38/7 16/39/7 15/40/7 14/41/7
f 14/42/4 15/43/4 17/44/4 13/45/4
f 45/46/7 46/47/7 16/39/7 18/38/7
f 3/6/2 1/48/2 14/49/2 13/7/2
f 1/48/2 5/50/2 18/51/2 14/49/2
f 5/50/2 41/52/2 45/53/2 18/51/2
f 8/17/2 44/54/2 41/52/2 5/50/2
f 71/16/2 110/55/2 44/54/2 8/17/2
f 4/2/1 70/15/1 74/56/1 17/3/1
f 13/45/4 17/44/4 74/57/4 73/58/4
f 19/59/2 21/60/2 22/61/2 20/62/2
f 9/31/8 11/30/8 21/63/8 19/64/8
f 12/37/9 10/36/9 20/65/9 22/66/9
f 10/27/10 9/26/10 19/67/10 20/68/10
f 24/69/1 37/70/1 39/71/1 26/72/1
f 103/73/2 107/74/2 35/75/2 25/76/2
f 42/9/1 46/12/1 38/77/1 28/78/1
f 29/79/1 28/78/1 24/69/1 26/72/1
f 106/80/1 29/79/1 26/72/1 104/81/1
f 103/73/2 25/76/2 30/82/2 105/83/2
f 109/18/1 43/19/1 29/79/1 106/80/1
f 43/19/1 42/9/1 28/78/1 29/79/1
f 28/78/1 38/77/1 37/70/1 24/69/1
f 33/84/10 49/85/10 50/86/10 34/87/10
f 23/88/6 32/89/6 31/90/6 25/91/6
f 25/92/5 31/93/5 33/94/5 30/95/5
f 30/96/4 33/84/4 34/87/4 27/97/4
f 27/98/7 34/99/7 32/100/7 23/101/7
f 40/102/7 36/103/7 37/104/7 38/105/7
f 36/106/6 35/107/6 39/108/6 37/109/6
f 45/46/7 40/102/7 38/105/7 46/47/7
f 25/76/2 35/75/2 36/110/2 23/111/2
f 23/111/2 36/110/2 40/112/2 27/113/2
f 27/113/2 40/112/2 45/53/2 41/52/2
f 30/82/2 27/113/2 41/52/2 44/54/2
f 105/83/2 30/82/2 44/54/2 110/55/2
f 26/72/1 39/71/1 108/114/1 104/81/1
f 35/107/6 107/115/6 108/116/6 39/108/6
f 47/117/2 48/118/2 50/119/2 49/120/2
f 31/93/8 47/121/8 49/122/8 33/94/8
f 34/99/9 50/123/9 48/124/9 32/100/9
f 32/89/3 48/125/3 47/126/3 31/90/3
f 52/127/1 65/128/1 67/129/1 54/130/1
f 69/5/2 73/8/2 63/131/2 53/132/2
f 98/133/1 102/134/1 66/135/1 56/136/1
f 57/137/1 56/136/1 52/127/1 54/130/1
f 72/14/1 57/137/1 54/130/1 70/15/1
f 69/5/2 53/132/2 58/138/2 71/16/2
f 109/18/1 99/139/1 57/137/1 72/14/1
f 99/139/1 98/133/1 56/136/1 57/137/1
f 56/136/1 66/135/1 65/128/1 52/127/1
f 61/140/3 77/141/3 78/142/3 62/143/3
f 51/144/4 60/145/4 59/146/4 53/147/4
f 53/148/7 59/149/7 61/150/7 58/151/7
f 58/152/6 61/140/6 62/143/6 55/153/6
f 55/154/5 62/155/5 60/156/5 51/157/5
f 68/158/5 64/159/5 65/160/5 66/161/5
f 64/162/4 63/163/4 67/164/4 65/165/4
f 101/166/5 68/158/5 66/161/5 102/167/5
f 53/132/2 63/131/2 64/168/2 51/169/2
f 51/169/2 64/168/2 68/170/2 55/171/2
f 55/171/2 68/170/2 101/172/2 97/173/2
f 58/138/2 55/171/2 97/173/2 100/174/2
f 71/16/2 58/138/2 100/174/2 110/55/2
f 54/130/1 67/129/1 74/56/1 70/15/1
f 63/163/4 73/58/4 74/57/4 67/164/4
f 75/175/2 76/176/2 78/177/2 77/178/2
f 59/149/9 75/179/9 77/180/9 61/150/9
f 62/155/8 78/181/8 76/182/8 60/156/8
f 60/145/10 76/183/10 75/184/10 59/146/10
f 80/185/1 82/186/1 95/187/1 93/188/1
f 103/73/2 81/189/2 91/190/2 107/74/2
f 98/133/1 84/191/1 94/192/1 102/134/1
f 85/193/1 82/186/1 80/185/1 84/191/1
f 106/80/1 104/81/1 82/186/1 85/193/1
f 103/73/2 105/83/2 86/194/2 81/189/2
f 109/18/1 106/80/1 85/193/1 99/139/1
f 99/139/1 85/193/1 84/191/1 98/133/1
f 84/191/1 80/185/1 93/188/1 94/192/1
f 89/195/10 90/196/10 114/197/10 113/198/10
f 79/199/6 81/200/6 87/201/6 88/202/6
f 81/203/7 86/204/7 89/205/7 87/206/7
f 86/207/4 83/208/4 90/196/4 89/195/4
f 83/209/5 79/210/5 88/211/5 90/212/5
f 96/213/5 94/214/5 93/215/5 92/216/5
f 92/217/6 93/218/6 95/219/6 91/220/6
f 101/166/5 102/167/5 94/214/5 96/213/5
f 81/189/2 79/221/2 92/222/2 91/190/2
f 79/221/2 83/223/2 96/224/2 92/222/2
f 83/223/2 97/173/2 101/172/2 96/224/2
f 86/194/2 100/174/2 97/173/2 83/223/2
f 105/83/2 110/55/2 100/174/2 86/194/2
f 82/186/1 104/81/1 108/114/1 95/187/1
f 91/220/6 95/219/6 108/116/6 107/115/6
f 111/225/2 113/226/2 114/227/2 112/228/2
f 87/206/9 89/205/9 113/229/9 111/230/9
f 90/212/8 88/211/8 112/231/8 114/232/8
f 88/202/3 87/201/3 111/233/3 112/234/3
